<mxfile host="app.diagrams.net" modified="2024-02-29T13:50:09.603Z" agent="Mozilla/5.0 (Windows NT 10.0; Win64; x64) AppleWebKit/537.36 (KHTML, like Gecko) Chrome/122.0.0.0 Safari/537.36 Edg/122.0.0.0" etag="vGNgC0ggyrcM4_vsvcE7" version="23.1.8" type="github">
  <diagram name="Page-1" id="rqKiZiB6ksyQkd7tJqps">
    <mxGraphModel dx="1453" dy="802" grid="1" gridSize="10" guides="1" tooltips="1" connect="1" arrows="1" fold="1" page="1" pageScale="1" pageWidth="827" pageHeight="1169" math="0" shadow="0">
      <root>
        <mxCell id="0" />
        <mxCell id="1" parent="0" />
        <mxCell id="ws0CT8kowRPNFZBQp5kx-2" value="Expert Métier&amp;nbsp;" style="shape=umlActor;verticalLabelPosition=bottom;verticalAlign=top;html=1;" parent="1" vertex="1">
          <mxGeometry x="50" y="220" width="30" height="70" as="geometry" />
        </mxCell>
        <mxCell id="ws0CT8kowRPNFZBQp5kx-15" value="Treatment&lt;br&gt;Register" style="shape=umlFrame;whiteSpace=wrap;html=1;pointerEvents=0;" parent="1" vertex="1">
          <mxGeometry x="140" y="20" width="670" height="450" as="geometry" />
        </mxCell>
        <mxCell id="ws0CT8kowRPNFZBQp5kx-16" value="S&#39;authentifier" style="ellipse;whiteSpace=wrap;html=1;" parent="1" vertex="1">
          <mxGeometry x="710" y="195" width="100" height="40" as="geometry" />
        </mxCell>
        <mxCell id="ws0CT8kowRPNFZBQp5kx-18" value="gérer la&amp;nbsp; fiche&amp;nbsp;" style="ellipse;whiteSpace=wrap;html=1;" parent="1" vertex="1">
          <mxGeometry x="322.5" y="40" width="130" height="40" as="geometry" />
        </mxCell>
        <mxCell id="ws0CT8kowRPNFZBQp5kx-23" value="include" style="endArrow=open;endSize=12;dashed=1;html=1;rounded=0;exitX=0.926;exitY=0.747;exitDx=0;exitDy=0;exitPerimeter=0;entryX=0.011;entryY=0.321;entryDx=0;entryDy=0;entryPerimeter=0;" parent="1" source="ws0CT8kowRPNFZBQp5kx-18" target="ws0CT8kowRPNFZBQp5kx-16" edge="1">
          <mxGeometry width="160" relative="1" as="geometry">
            <mxPoint x="452.5" y="89.41" as="sourcePoint" />
            <mxPoint x="690" y="190" as="targetPoint" />
          </mxGeometry>
        </mxCell>
        <mxCell id="ws0CT8kowRPNFZBQp5kx-25" value="consulter le tableau de bord&amp;nbsp;" style="ellipse;whiteSpace=wrap;html=1;" parent="1" vertex="1">
          <mxGeometry x="272.5" y="305" width="180" height="50" as="geometry" />
        </mxCell>
        <mxCell id="ws0CT8kowRPNFZBQp5kx-26" value="include" style="endArrow=open;endSize=12;dashed=1;html=1;rounded=0;exitX=1;exitY=0.5;exitDx=0;exitDy=0;" parent="1" source="ws0CT8kowRPNFZBQp5kx-25" edge="1">
          <mxGeometry width="160" relative="1" as="geometry">
            <mxPoint x="450.0038162905223" y="292.718286580141" as="sourcePoint" />
            <mxPoint x="722.47" y="220" as="targetPoint" />
          </mxGeometry>
        </mxCell>
        <mxCell id="ws0CT8kowRPNFZBQp5kx-27" value="consulter&amp;nbsp; ses propres fiches&amp;nbsp;" style="ellipse;whiteSpace=wrap;html=1;" parent="1" vertex="1">
          <mxGeometry x="290" y="360" width="160" height="50" as="geometry" />
        </mxCell>
        <mxCell id="ws0CT8kowRPNFZBQp5kx-28" value="include" style="endArrow=open;endSize=12;dashed=1;html=1;rounded=0;exitX=1;exitY=0.5;exitDx=0;exitDy=0;" parent="1" source="ws0CT8kowRPNFZBQp5kx-27" edge="1">
          <mxGeometry width="160" relative="1" as="geometry">
            <mxPoint x="456" y="183" as="sourcePoint" />
            <mxPoint x="730" y="220" as="targetPoint" />
            <Array as="points">
              <mxPoint x="690" y="240" />
            </Array>
          </mxGeometry>
        </mxCell>
        <mxCell id="MQydgDbDMx1VdMjxx8H2-1" value="remplir la fiche&amp;nbsp;" style="ellipse;whiteSpace=wrap;html=1;" vertex="1" parent="1">
          <mxGeometry x="210" y="210" width="144" height="40" as="geometry" />
        </mxCell>
        <mxCell id="MQydgDbDMx1VdMjxx8H2-3" value="Modifier une fiche&amp;nbsp;" style="ellipse;whiteSpace=wrap;html=1;" vertex="1" parent="1">
          <mxGeometry x="330" y="140" width="130" height="40" as="geometry" />
        </mxCell>
        <mxCell id="MQydgDbDMx1VdMjxx8H2-4" value="Créer une fiche&amp;nbsp;" style="ellipse;whiteSpace=wrap;html=1;" vertex="1" parent="1">
          <mxGeometry x="200" y="160" width="130" height="40" as="geometry" />
        </mxCell>
        <mxCell id="MQydgDbDMx1VdMjxx8H2-7" value="include" style="endArrow=open;endSize=12;dashed=1;html=1;rounded=0;exitX=0.962;exitY=0.327;exitDx=0;exitDy=0;exitPerimeter=0;" edge="1" parent="1" source="MQydgDbDMx1VdMjxx8H2-1">
          <mxGeometry width="160" relative="1" as="geometry">
            <mxPoint x="473" y="345" as="sourcePoint" />
            <mxPoint x="720" y="220" as="targetPoint" />
            <Array as="points">
              <mxPoint x="710" y="200" />
            </Array>
          </mxGeometry>
        </mxCell>
        <mxCell id="MQydgDbDMx1VdMjxx8H2-11" value="" style="edgeStyle=none;orthogonalLoop=1;jettySize=auto;html=1;rounded=0;entryX=0.043;entryY=0.718;entryDx=0;entryDy=0;entryPerimeter=0;" edge="1" parent="1" target="ws0CT8kowRPNFZBQp5kx-18">
          <mxGeometry width="80" relative="1" as="geometry">
            <mxPoint x="100" y="240" as="sourcePoint" />
            <mxPoint x="180" y="250" as="targetPoint" />
            <Array as="points" />
          </mxGeometry>
        </mxCell>
        <mxCell id="MQydgDbDMx1VdMjxx8H2-14" value="" style="edgeStyle=none;orthogonalLoop=1;jettySize=auto;html=1;rounded=0;entryX=0;entryY=0.5;entryDx=0;entryDy=0;" edge="1" parent="1" target="ws0CT8kowRPNFZBQp5kx-25">
          <mxGeometry width="80" relative="1" as="geometry">
            <mxPoint x="113.43" y="265" as="sourcePoint" />
            <mxPoint x="292.5037488498387" y="304.6103417315687" as="targetPoint" />
            <Array as="points" />
          </mxGeometry>
        </mxCell>
        <mxCell id="MQydgDbDMx1VdMjxx8H2-15" value="" style="edgeStyle=none;orthogonalLoop=1;jettySize=auto;html=1;rounded=0;entryX=0;entryY=0.5;entryDx=0;entryDy=0;" edge="1" parent="1" target="ws0CT8kowRPNFZBQp5kx-27">
          <mxGeometry width="80" relative="1" as="geometry">
            <mxPoint x="110" y="270" as="sourcePoint" />
            <mxPoint x="338" y="109" as="targetPoint" />
            <Array as="points" />
          </mxGeometry>
        </mxCell>
        <mxCell id="MQydgDbDMx1VdMjxx8H2-16" value="" style="edgeStyle=none;orthogonalLoop=1;jettySize=auto;html=1;rounded=0;entryX=0;entryY=0.5;entryDx=0;entryDy=0;" edge="1" parent="1" target="MQydgDbDMx1VdMjxx8H2-1">
          <mxGeometry width="80" relative="1" as="geometry">
            <mxPoint x="110" y="260" as="sourcePoint" />
            <mxPoint x="348" y="219" as="targetPoint" />
            <Array as="points" />
          </mxGeometry>
        </mxCell>
        <mxCell id="MQydgDbDMx1VdMjxx8H2-18" value="Consulter les notifications des fiches crées&amp;nbsp;" style="ellipse;whiteSpace=wrap;html=1;" vertex="1" parent="1">
          <mxGeometry x="315" y="420" width="160" height="50" as="geometry" />
        </mxCell>
        <mxCell id="MQydgDbDMx1VdMjxx8H2-20" value="" style="edgeStyle=none;orthogonalLoop=1;jettySize=auto;html=1;rounded=0;entryX=0.02;entryY=0.327;entryDx=0;entryDy=0;entryPerimeter=0;" edge="1" parent="1" target="MQydgDbDMx1VdMjxx8H2-18">
          <mxGeometry width="80" relative="1" as="geometry">
            <mxPoint x="110" y="290" as="sourcePoint" />
            <mxPoint x="313" y="375" as="targetPoint" />
            <Array as="points" />
          </mxGeometry>
        </mxCell>
        <mxCell id="MQydgDbDMx1VdMjxx8H2-21" value="include" style="endArrow=open;endSize=12;dashed=1;html=1;rounded=0;exitX=1;exitY=0.5;exitDx=0;exitDy=0;" edge="1" parent="1" source="MQydgDbDMx1VdMjxx8H2-18">
          <mxGeometry width="160" relative="1" as="geometry">
            <mxPoint x="466" y="366" as="sourcePoint" />
            <mxPoint x="730" y="230" as="targetPoint" />
          </mxGeometry>
        </mxCell>
        <mxCell id="MQydgDbDMx1VdMjxx8H2-70" value="RPO" style="shape=umlActor;verticalLabelPosition=bottom;verticalAlign=top;html=1;" vertex="1" parent="1">
          <mxGeometry x="40" y="765" width="30" height="70" as="geometry" />
        </mxCell>
        <mxCell id="MQydgDbDMx1VdMjxx8H2-71" value="Treatment&lt;br&gt;Register" style="shape=umlFrame;whiteSpace=wrap;html=1;pointerEvents=0;width=70;height=30;" vertex="1" parent="1">
          <mxGeometry x="190" y="580" width="670" height="480" as="geometry" />
        </mxCell>
        <mxCell id="MQydgDbDMx1VdMjxx8H2-73" value="Consulter les notifications de fiche&amp;nbsp;" style="ellipse;whiteSpace=wrap;html=1;" vertex="1" parent="1">
          <mxGeometry x="350" y="585" width="142.5" height="50" as="geometry" />
        </mxCell>
        <mxCell id="MQydgDbDMx1VdMjxx8H2-74" value="include" style="endArrow=open;endSize=12;dashed=1;html=1;rounded=0;exitX=0.926;exitY=0.747;exitDx=0;exitDy=0;exitPerimeter=0;entryX=0.011;entryY=0.321;entryDx=0;entryDy=0;entryPerimeter=0;" edge="1" parent="1" source="MQydgDbDMx1VdMjxx8H2-73" target="MQydgDbDMx1VdMjxx8H2-72">
          <mxGeometry width="160" relative="1" as="geometry">
            <mxPoint x="502.5" y="649.41" as="sourcePoint" />
            <mxPoint x="740" y="750" as="targetPoint" />
          </mxGeometry>
        </mxCell>
        <mxCell id="MQydgDbDMx1VdMjxx8H2-75" value="consulter le tableau de bord&amp;nbsp;" style="ellipse;whiteSpace=wrap;html=1;" vertex="1" parent="1">
          <mxGeometry x="360" y="940" width="180" height="50" as="geometry" />
        </mxCell>
        <mxCell id="MQydgDbDMx1VdMjxx8H2-76" value="include" style="endArrow=open;endSize=12;dashed=1;html=1;rounded=0;entryX=0.016;entryY=0.703;entryDx=0;entryDy=0;entryPerimeter=0;" edge="1" parent="1" source="MQydgDbDMx1VdMjxx8H2-75" target="MQydgDbDMx1VdMjxx8H2-72">
          <mxGeometry width="160" relative="1" as="geometry">
            <mxPoint x="483" y="690" as="sourcePoint" />
            <mxPoint x="750" y="770" as="targetPoint" />
          </mxGeometry>
        </mxCell>
        <mxCell id="MQydgDbDMx1VdMjxx8H2-77" value="consulter l&#39;historique des fiches&amp;nbsp;&amp;nbsp;" style="ellipse;whiteSpace=wrap;html=1;" vertex="1" parent="1">
          <mxGeometry x="330" y="1000" width="160" height="50" as="geometry" />
        </mxCell>
        <mxCell id="MQydgDbDMx1VdMjxx8H2-78" value="include" style="endArrow=open;endSize=12;dashed=1;html=1;rounded=0;exitX=1;exitY=0.5;exitDx=0;exitDy=0;entryX=0;entryY=1;entryDx=0;entryDy=0;" edge="1" parent="1" source="MQydgDbDMx1VdMjxx8H2-77" target="MQydgDbDMx1VdMjxx8H2-72">
          <mxGeometry width="160" relative="1" as="geometry">
            <mxPoint x="506" y="743" as="sourcePoint" />
            <mxPoint x="760" y="770" as="targetPoint" />
          </mxGeometry>
        </mxCell>
        <mxCell id="MQydgDbDMx1VdMjxx8H2-80" value="Vérifier la fiche&amp;nbsp;" style="ellipse;whiteSpace=wrap;html=1;" vertex="1" parent="1">
          <mxGeometry x="362.5" y="670" width="130" height="40" as="geometry" />
        </mxCell>
        <mxCell id="MQydgDbDMx1VdMjxx8H2-81" value="rejeter la fiche&amp;nbsp;" style="ellipse;whiteSpace=wrap;html=1;" vertex="1" parent="1">
          <mxGeometry x="240" y="770" width="130" height="40" as="geometry" />
        </mxCell>
        <mxCell id="MQydgDbDMx1VdMjxx8H2-85" value="" style="edgeStyle=none;orthogonalLoop=1;jettySize=auto;html=1;rounded=0;entryX=0.043;entryY=0.718;entryDx=0;entryDy=0;entryPerimeter=0;" edge="1" parent="1" target="MQydgDbDMx1VdMjxx8H2-73">
          <mxGeometry width="80" relative="1" as="geometry">
            <mxPoint x="90" y="810" as="sourcePoint" />
            <mxPoint x="230" y="810" as="targetPoint" />
            <Array as="points" />
          </mxGeometry>
        </mxCell>
        <mxCell id="MQydgDbDMx1VdMjxx8H2-88" value="" style="edgeStyle=none;orthogonalLoop=1;jettySize=auto;html=1;rounded=0;entryX=0;entryY=0.5;entryDx=0;entryDy=0;" edge="1" parent="1">
          <mxGeometry width="80" relative="1" as="geometry">
            <mxPoint x="90" y="840" as="sourcePoint" />
            <mxPoint x="330" y="1025" as="targetPoint" />
            <Array as="points" />
          </mxGeometry>
        </mxCell>
        <mxCell id="MQydgDbDMx1VdMjxx8H2-90" value="" style="edgeStyle=none;orthogonalLoop=1;jettySize=auto;html=1;rounded=0;entryX=0;entryY=0.5;entryDx=0;entryDy=0;" edge="1" parent="1" target="MQydgDbDMx1VdMjxx8H2-80">
          <mxGeometry width="80" relative="1" as="geometry">
            <mxPoint x="100" y="820" as="sourcePoint" />
            <mxPoint x="336" y="619" as="targetPoint" />
            <Array as="points" />
          </mxGeometry>
        </mxCell>
        <mxCell id="MQydgDbDMx1VdMjxx8H2-96" value="" style="endArrow=open;endSize=12;dashed=1;html=1;rounded=0;exitX=1;exitY=0.5;exitDx=0;exitDy=0;entryX=0.011;entryY=0.321;entryDx=0;entryDy=0;entryPerimeter=0;" edge="1" parent="1" source="MQydgDbDMx1VdMjxx8H2-80" target="MQydgDbDMx1VdMjxx8H2-72">
          <mxGeometry width="160" relative="1" as="geometry">
            <mxPoint x="483" y="680" as="sourcePoint" />
            <mxPoint x="761" y="763" as="targetPoint" />
          </mxGeometry>
        </mxCell>
        <mxCell id="MQydgDbDMx1VdMjxx8H2-72" value="S&#39;authentifier" style="ellipse;whiteSpace=wrap;html=1;" vertex="1" parent="1">
          <mxGeometry x="740" y="795" width="100" height="40" as="geometry" />
        </mxCell>
        <mxCell id="MQydgDbDMx1VdMjxx8H2-97" value="valider la fiche&amp;nbsp;" style="ellipse;whiteSpace=wrap;html=1;" vertex="1" parent="1">
          <mxGeometry x="462.5" y="755" width="130" height="40" as="geometry" />
        </mxCell>
        <mxCell id="MQydgDbDMx1VdMjxx8H2-98" value="extend" style="endArrow=open;endSize=12;dashed=1;html=1;rounded=0;" edge="1" parent="1" source="MQydgDbDMx1VdMjxx8H2-81" target="MQydgDbDMx1VdMjxx8H2-80">
          <mxGeometry width="160" relative="1" as="geometry">
            <mxPoint x="370" y="730" as="sourcePoint" />
            <mxPoint x="530" y="730" as="targetPoint" />
          </mxGeometry>
        </mxCell>
        <mxCell id="MQydgDbDMx1VdMjxx8H2-100" value="extend" style="endArrow=open;endSize=12;dashed=1;html=1;rounded=0;entryX=0.772;entryY=0.968;entryDx=0;entryDy=0;entryPerimeter=0;" edge="1" parent="1" source="MQydgDbDMx1VdMjxx8H2-97" target="MQydgDbDMx1VdMjxx8H2-80">
          <mxGeometry width="160" relative="1" as="geometry">
            <mxPoint x="382" y="751" as="sourcePoint" />
            <mxPoint x="413" y="709" as="targetPoint" />
          </mxGeometry>
        </mxCell>
        <mxCell id="MQydgDbDMx1VdMjxx8H2-101" value="Supprimer une fiche&amp;nbsp;" style="ellipse;whiteSpace=wrap;html=1;" vertex="1" parent="1">
          <mxGeometry x="462.5" y="150" width="130" height="40" as="geometry" />
        </mxCell>
        <mxCell id="MQydgDbDMx1VdMjxx8H2-103" value="extend" style="endArrow=open;endSize=12;dashed=1;html=1;rounded=0;" edge="1" parent="1" source="MQydgDbDMx1VdMjxx8H2-4" target="ws0CT8kowRPNFZBQp5kx-18">
          <mxGeometry width="160" relative="1" as="geometry">
            <mxPoint x="460" y="260" as="sourcePoint" />
            <mxPoint x="620" y="260" as="targetPoint" />
            <Array as="points">
              <mxPoint x="350" y="80" />
            </Array>
          </mxGeometry>
        </mxCell>
        <mxCell id="MQydgDbDMx1VdMjxx8H2-104" value="extend" style="endArrow=open;endSize=12;dashed=1;html=1;rounded=0;entryX=0.64;entryY=0.997;entryDx=0;entryDy=0;entryPerimeter=0;exitX=0.5;exitY=0;exitDx=0;exitDy=0;" edge="1" parent="1" source="MQydgDbDMx1VdMjxx8H2-3" target="ws0CT8kowRPNFZBQp5kx-18">
          <mxGeometry width="160" relative="1" as="geometry">
            <mxPoint x="402.37" y="130" as="sourcePoint" />
            <mxPoint x="387.62" y="80" as="targetPoint" />
            <Array as="points">
              <mxPoint x="402.37" y="100" />
            </Array>
          </mxGeometry>
        </mxCell>
        <mxCell id="MQydgDbDMx1VdMjxx8H2-106" value="extend" style="endArrow=open;endSize=12;dashed=1;html=1;rounded=0;" edge="1" parent="1" source="MQydgDbDMx1VdMjxx8H2-101" target="ws0CT8kowRPNFZBQp5kx-18">
          <mxGeometry x="0.004" width="160" relative="1" as="geometry">
            <mxPoint x="291" y="171" as="sourcePoint" />
            <mxPoint x="366" y="87" as="targetPoint" />
            <Array as="points">
              <mxPoint x="430" y="80" />
            </Array>
            <mxPoint as="offset" />
          </mxGeometry>
        </mxCell>
        <mxCell id="MQydgDbDMx1VdMjxx8H2-112" value="Envoyer la fiche&amp;nbsp;" style="ellipse;whiteSpace=wrap;html=1;" vertex="1" parent="1">
          <mxGeometry x="430" y="870" width="130" height="40" as="geometry" />
        </mxCell>
        <mxCell id="MQydgDbDMx1VdMjxx8H2-114" value="include" style="endArrow=open;endSize=12;dashed=1;html=1;rounded=0;" edge="1" parent="1" source="MQydgDbDMx1VdMjxx8H2-112" target="MQydgDbDMx1VdMjxx8H2-97">
          <mxGeometry width="160" relative="1" as="geometry">
            <mxPoint x="510" y="865" as="sourcePoint" />
            <mxPoint x="520" y="820" as="targetPoint" />
          </mxGeometry>
        </mxCell>
        <mxCell id="MQydgDbDMx1VdMjxx8H2-115" value="Envoyer un message de rejet&amp;nbsp;" style="ellipse;whiteSpace=wrap;html=1;" vertex="1" parent="1">
          <mxGeometry x="264" y="870" width="140" height="40" as="geometry" />
        </mxCell>
        <mxCell id="MQydgDbDMx1VdMjxx8H2-116" value="include" style="endArrow=open;endSize=12;dashed=1;html=1;rounded=0;entryX=1;entryY=1;entryDx=0;entryDy=0;exitX=0.586;exitY=-0.062;exitDx=0;exitDy=0;exitPerimeter=0;" edge="1" parent="1" source="MQydgDbDMx1VdMjxx8H2-115" target="MQydgDbDMx1VdMjxx8H2-81">
          <mxGeometry width="160" relative="1" as="geometry">
            <mxPoint x="537" y="870" as="sourcePoint" />
            <mxPoint x="556" y="840" as="targetPoint" />
            <Array as="points" />
          </mxGeometry>
        </mxCell>
        <mxCell id="MQydgDbDMx1VdMjxx8H2-117" value="" style="edgeStyle=none;orthogonalLoop=1;jettySize=auto;html=1;rounded=0;entryX=0;entryY=0.5;entryDx=0;entryDy=0;" edge="1" parent="1" target="MQydgDbDMx1VdMjxx8H2-75">
          <mxGeometry width="80" relative="1" as="geometry">
            <mxPoint x="100" y="820" as="sourcePoint" />
            <mxPoint x="340" y="1005" as="targetPoint" />
            <Array as="points" />
          </mxGeometry>
        </mxCell>
        <mxCell id="MQydgDbDMx1VdMjxx8H2-172" value="DPO" style="shape=umlActor;verticalLabelPosition=bottom;verticalAlign=top;html=1;" vertex="1" parent="1">
          <mxGeometry x="1230" y="325" width="30" height="70" as="geometry" />
        </mxCell>
        <mxCell id="MQydgDbDMx1VdMjxx8H2-173" value="Treatment&lt;br&gt;Register" style="shape=umlFrame;whiteSpace=wrap;html=1;pointerEvents=0;width=70;height=30;" vertex="1" parent="1">
          <mxGeometry x="1380" y="140" width="670" height="480" as="geometry" />
        </mxCell>
        <mxCell id="MQydgDbDMx1VdMjxx8H2-174" value="Consulter les notifications de fiche&amp;nbsp;" style="ellipse;whiteSpace=wrap;html=1;" vertex="1" parent="1">
          <mxGeometry x="1540" y="145" width="142.5" height="50" as="geometry" />
        </mxCell>
        <mxCell id="MQydgDbDMx1VdMjxx8H2-175" value="include" style="endArrow=open;endSize=12;dashed=1;html=1;rounded=0;exitX=0.926;exitY=0.747;exitDx=0;exitDy=0;exitPerimeter=0;entryX=0.011;entryY=0.321;entryDx=0;entryDy=0;entryPerimeter=0;" edge="1" parent="1" source="MQydgDbDMx1VdMjxx8H2-174" target="MQydgDbDMx1VdMjxx8H2-186">
          <mxGeometry width="160" relative="1" as="geometry">
            <mxPoint x="1692.5" y="209.40999999999997" as="sourcePoint" />
            <mxPoint x="1930" y="310" as="targetPoint" />
          </mxGeometry>
        </mxCell>
        <mxCell id="MQydgDbDMx1VdMjxx8H2-176" value="consulter le tableau de bord&amp;nbsp;" style="ellipse;whiteSpace=wrap;html=1;" vertex="1" parent="1">
          <mxGeometry x="1550" y="500" width="180" height="50" as="geometry" />
        </mxCell>
        <mxCell id="MQydgDbDMx1VdMjxx8H2-177" value="include" style="endArrow=open;endSize=12;dashed=1;html=1;rounded=0;entryX=0.016;entryY=0.703;entryDx=0;entryDy=0;entryPerimeter=0;" edge="1" parent="1" source="MQydgDbDMx1VdMjxx8H2-176" target="MQydgDbDMx1VdMjxx8H2-186">
          <mxGeometry width="160" relative="1" as="geometry">
            <mxPoint x="1673" y="250" as="sourcePoint" />
            <mxPoint x="1940" y="330" as="targetPoint" />
          </mxGeometry>
        </mxCell>
        <mxCell id="MQydgDbDMx1VdMjxx8H2-178" value="consulter l&#39;historique des fiches&amp;nbsp;&amp;nbsp;" style="ellipse;whiteSpace=wrap;html=1;" vertex="1" parent="1">
          <mxGeometry x="1520" y="560" width="160" height="50" as="geometry" />
        </mxCell>
        <mxCell id="MQydgDbDMx1VdMjxx8H2-179" value="include" style="endArrow=open;endSize=12;dashed=1;html=1;rounded=0;exitX=1;exitY=0.5;exitDx=0;exitDy=0;entryX=0;entryY=1;entryDx=0;entryDy=0;" edge="1" parent="1" source="MQydgDbDMx1VdMjxx8H2-178" target="MQydgDbDMx1VdMjxx8H2-186">
          <mxGeometry width="160" relative="1" as="geometry">
            <mxPoint x="1696" y="303" as="sourcePoint" />
            <mxPoint x="1950" y="330" as="targetPoint" />
          </mxGeometry>
        </mxCell>
        <mxCell id="MQydgDbDMx1VdMjxx8H2-180" value="Vérifier la fiche&amp;nbsp;" style="ellipse;whiteSpace=wrap;html=1;" vertex="1" parent="1">
          <mxGeometry x="1552.5" y="225" width="130" height="40" as="geometry" />
        </mxCell>
        <mxCell id="MQydgDbDMx1VdMjxx8H2-181" value="rejeter la fiche&amp;nbsp;" style="ellipse;whiteSpace=wrap;html=1;" vertex="1" parent="1">
          <mxGeometry x="1430" y="315" width="130" height="40" as="geometry" />
        </mxCell>
        <mxCell id="MQydgDbDMx1VdMjxx8H2-182" value="" style="edgeStyle=none;orthogonalLoop=1;jettySize=auto;html=1;rounded=0;entryX=0.043;entryY=0.718;entryDx=0;entryDy=0;entryPerimeter=0;" edge="1" parent="1" target="MQydgDbDMx1VdMjxx8H2-174">
          <mxGeometry width="80" relative="1" as="geometry">
            <mxPoint x="1280" y="370" as="sourcePoint" />
            <mxPoint x="1420" y="370" as="targetPoint" />
            <Array as="points" />
          </mxGeometry>
        </mxCell>
        <mxCell id="MQydgDbDMx1VdMjxx8H2-183" value="" style="edgeStyle=none;orthogonalLoop=1;jettySize=auto;html=1;rounded=0;entryX=0;entryY=0.5;entryDx=0;entryDy=0;" edge="1" parent="1">
          <mxGeometry width="80" relative="1" as="geometry">
            <mxPoint x="1280" y="400" as="sourcePoint" />
            <mxPoint x="1520" y="585" as="targetPoint" />
            <Array as="points" />
          </mxGeometry>
        </mxCell>
        <mxCell id="MQydgDbDMx1VdMjxx8H2-184" value="" style="edgeStyle=none;orthogonalLoop=1;jettySize=auto;html=1;rounded=0;entryX=0;entryY=0.5;entryDx=0;entryDy=0;" edge="1" parent="1" target="MQydgDbDMx1VdMjxx8H2-180">
          <mxGeometry width="80" relative="1" as="geometry">
            <mxPoint x="1290" y="380" as="sourcePoint" />
            <mxPoint x="1526" y="179" as="targetPoint" />
            <Array as="points" />
          </mxGeometry>
        </mxCell>
        <mxCell id="MQydgDbDMx1VdMjxx8H2-185" value="" style="endArrow=open;endSize=12;dashed=1;html=1;rounded=0;exitX=1;exitY=0.5;exitDx=0;exitDy=0;entryX=0.011;entryY=0.321;entryDx=0;entryDy=0;entryPerimeter=0;" edge="1" parent="1" source="MQydgDbDMx1VdMjxx8H2-180" target="MQydgDbDMx1VdMjxx8H2-186">
          <mxGeometry width="160" relative="1" as="geometry">
            <mxPoint x="1673" y="240" as="sourcePoint" />
            <mxPoint x="1951" y="323" as="targetPoint" />
          </mxGeometry>
        </mxCell>
        <mxCell id="MQydgDbDMx1VdMjxx8H2-186" value="S&#39;authentifier" style="ellipse;whiteSpace=wrap;html=1;" vertex="1" parent="1">
          <mxGeometry x="1930" y="355" width="100" height="40" as="geometry" />
        </mxCell>
        <mxCell id="MQydgDbDMx1VdMjxx8H2-187" value="valider la fiche&amp;nbsp;" style="ellipse;whiteSpace=wrap;html=1;" vertex="1" parent="1">
          <mxGeometry x="1654" y="330" width="130" height="40" as="geometry" />
        </mxCell>
        <mxCell id="MQydgDbDMx1VdMjxx8H2-188" value="extend" style="endArrow=open;endSize=12;dashed=1;html=1;rounded=0;" edge="1" parent="1" source="MQydgDbDMx1VdMjxx8H2-181" target="MQydgDbDMx1VdMjxx8H2-180">
          <mxGeometry width="160" relative="1" as="geometry">
            <mxPoint x="1560" y="290" as="sourcePoint" />
            <mxPoint x="1720" y="290" as="targetPoint" />
          </mxGeometry>
        </mxCell>
        <mxCell id="MQydgDbDMx1VdMjxx8H2-189" value="extend" style="endArrow=open;endSize=12;dashed=1;html=1;rounded=0;entryX=0.772;entryY=0.968;entryDx=0;entryDy=0;entryPerimeter=0;" edge="1" parent="1" source="MQydgDbDMx1VdMjxx8H2-187" target="MQydgDbDMx1VdMjxx8H2-180">
          <mxGeometry width="160" relative="1" as="geometry">
            <mxPoint x="1572" y="311" as="sourcePoint" />
            <mxPoint x="1603" y="269" as="targetPoint" />
          </mxGeometry>
        </mxCell>
        <mxCell id="MQydgDbDMx1VdMjxx8H2-194" value="Envoyer la fiche&amp;nbsp;" style="ellipse;whiteSpace=wrap;html=1;" vertex="1" parent="1">
          <mxGeometry x="1620" y="430" width="130" height="40" as="geometry" />
        </mxCell>
        <mxCell id="MQydgDbDMx1VdMjxx8H2-195" value="include" style="endArrow=open;endSize=12;dashed=1;html=1;rounded=0;" edge="1" parent="1" source="MQydgDbDMx1VdMjxx8H2-194" target="MQydgDbDMx1VdMjxx8H2-187">
          <mxGeometry width="160" relative="1" as="geometry">
            <mxPoint x="1700" y="425" as="sourcePoint" />
            <mxPoint x="1710" y="380" as="targetPoint" />
          </mxGeometry>
        </mxCell>
        <mxCell id="MQydgDbDMx1VdMjxx8H2-196" value="Envoyer un message de rejet&amp;nbsp;" style="ellipse;whiteSpace=wrap;html=1;" vertex="1" parent="1">
          <mxGeometry x="1454" y="430" width="140" height="40" as="geometry" />
        </mxCell>
        <mxCell id="MQydgDbDMx1VdMjxx8H2-197" value="include" style="endArrow=open;endSize=12;dashed=1;html=1;rounded=0;entryX=1;entryY=1;entryDx=0;entryDy=0;exitX=0.586;exitY=-0.062;exitDx=0;exitDy=0;exitPerimeter=0;" edge="1" parent="1" source="MQydgDbDMx1VdMjxx8H2-196" target="MQydgDbDMx1VdMjxx8H2-181">
          <mxGeometry width="160" relative="1" as="geometry">
            <mxPoint x="1727" y="430" as="sourcePoint" />
            <mxPoint x="1746" y="400" as="targetPoint" />
            <Array as="points" />
          </mxGeometry>
        </mxCell>
        <mxCell id="MQydgDbDMx1VdMjxx8H2-198" value="" style="edgeStyle=none;orthogonalLoop=1;jettySize=auto;html=1;rounded=0;entryX=0;entryY=0.5;entryDx=0;entryDy=0;" edge="1" parent="1" target="MQydgDbDMx1VdMjxx8H2-176">
          <mxGeometry width="80" relative="1" as="geometry">
            <mxPoint x="1290" y="380" as="sourcePoint" />
            <mxPoint x="1530" y="565" as="targetPoint" />
            <Array as="points" />
          </mxGeometry>
        </mxCell>
        <mxCell id="MQydgDbDMx1VdMjxx8H2-202" value="include" style="endArrow=open;endSize=12;dashed=1;html=1;rounded=0;" edge="1" parent="1" source="MQydgDbDMx1VdMjxx8H2-203" target="MQydgDbDMx1VdMjxx8H2-1">
          <mxGeometry width="160" relative="1" as="geometry">
            <mxPoint x="122.86088514452808" y="278.1452866128959" as="sourcePoint" />
            <mxPoint x="390" y="220" as="targetPoint" />
            <Array as="points">
              <mxPoint x="370" y="270" />
            </Array>
          </mxGeometry>
        </mxCell>
        <mxCell id="MQydgDbDMx1VdMjxx8H2-203" value="envoyer la fiche&amp;nbsp;" style="ellipse;whiteSpace=wrap;html=1;" vertex="1" parent="1">
          <mxGeometry x="398" y="250" width="154" height="35" as="geometry" />
        </mxCell>
        <mxCell id="MQydgDbDMx1VdMjxx8H2-228" value="GDPO" style="shape=umlActor;verticalLabelPosition=bottom;verticalAlign=top;html=1;" vertex="1" parent="1">
          <mxGeometry x="1410" y="955" width="30" height="70" as="geometry" />
        </mxCell>
        <mxCell id="MQydgDbDMx1VdMjxx8H2-229" value="Treatment&lt;br&gt;Register" style="shape=umlFrame;whiteSpace=wrap;html=1;pointerEvents=0;width=70;height=30;" vertex="1" parent="1">
          <mxGeometry x="1560" y="770" width="690" height="580" as="geometry" />
        </mxCell>
        <mxCell id="MQydgDbDMx1VdMjxx8H2-230" value="Consulter les notifications de fiche&amp;nbsp;" style="ellipse;whiteSpace=wrap;html=1;" vertex="1" parent="1">
          <mxGeometry x="1720" y="775" width="142.5" height="50" as="geometry" />
        </mxCell>
        <mxCell id="MQydgDbDMx1VdMjxx8H2-231" value="include" style="endArrow=open;endSize=12;dashed=1;html=1;rounded=0;exitX=0.926;exitY=0.747;exitDx=0;exitDy=0;exitPerimeter=0;" edge="1" parent="1" target="MQydgDbDMx1VdMjxx8H2-242">
          <mxGeometry width="160" relative="1" as="geometry">
            <mxPoint x="1860.2650000000003" y="809.6899999999999" as="sourcePoint" />
            <mxPoint x="2099.74" y="999.995" as="targetPoint" />
          </mxGeometry>
        </mxCell>
        <mxCell id="MQydgDbDMx1VdMjxx8H2-232" value="consulter le tableau de bord&amp;nbsp;" style="ellipse;whiteSpace=wrap;html=1;" vertex="1" parent="1">
          <mxGeometry x="1707.5" y="1160" width="180" height="50" as="geometry" />
        </mxCell>
        <mxCell id="MQydgDbDMx1VdMjxx8H2-233" value="include" style="endArrow=open;endSize=12;dashed=1;html=1;rounded=0;entryX=0.094;entryY=0.784;entryDx=0;entryDy=0;entryPerimeter=0;" edge="1" parent="1" target="MQydgDbDMx1VdMjxx8H2-242">
          <mxGeometry width="160" relative="1" as="geometry">
            <mxPoint x="1877.5013395519313" y="1180.8200458307515" as="sourcePoint" />
            <mxPoint x="2120.62" y="1039.995" as="targetPoint" />
            <Array as="points" />
          </mxGeometry>
        </mxCell>
        <mxCell id="MQydgDbDMx1VdMjxx8H2-234" value="consulter l&#39;historique des fiches&amp;nbsp;&amp;nbsp;" style="ellipse;whiteSpace=wrap;html=1;" vertex="1" parent="1">
          <mxGeometry x="1717.5" y="1230" width="160" height="50" as="geometry" />
        </mxCell>
        <mxCell id="MQydgDbDMx1VdMjxx8H2-235" value="include" style="endArrow=open;endSize=12;dashed=1;html=1;rounded=0;exitX=0.963;exitY=0.339;exitDx=0;exitDy=0;entryX=0;entryY=1;entryDx=0;entryDy=0;exitPerimeter=0;" edge="1" parent="1" source="MQydgDbDMx1VdMjxx8H2-234">
          <mxGeometry width="160" relative="1" as="geometry">
            <mxPoint x="1877.5" y="1263.17" as="sourcePoint" />
            <mxPoint x="2108.771399112176" y="1040.001960371272" as="targetPoint" />
          </mxGeometry>
        </mxCell>
        <mxCell id="MQydgDbDMx1VdMjxx8H2-236" value="Vérifier la fiche&amp;nbsp;" style="ellipse;whiteSpace=wrap;html=1;" vertex="1" parent="1">
          <mxGeometry x="1720" y="840" width="130" height="40" as="geometry" />
        </mxCell>
        <mxCell id="MQydgDbDMx1VdMjxx8H2-237" value="rejeter la fiche&amp;nbsp;" style="ellipse;whiteSpace=wrap;html=1;" vertex="1" parent="1">
          <mxGeometry x="1654" y="915" width="130" height="40" as="geometry" />
        </mxCell>
        <mxCell id="MQydgDbDMx1VdMjxx8H2-238" value="" style="edgeStyle=none;orthogonalLoop=1;jettySize=auto;html=1;rounded=0;entryX=0.043;entryY=0.718;entryDx=0;entryDy=0;entryPerimeter=0;" edge="1" parent="1" target="MQydgDbDMx1VdMjxx8H2-230">
          <mxGeometry width="80" relative="1" as="geometry">
            <mxPoint x="1460" y="1000" as="sourcePoint" />
            <mxPoint x="1600" y="1000" as="targetPoint" />
            <Array as="points" />
          </mxGeometry>
        </mxCell>
        <mxCell id="MQydgDbDMx1VdMjxx8H2-239" value="" style="edgeStyle=none;orthogonalLoop=1;jettySize=auto;html=1;rounded=0;entryX=0;entryY=0.5;entryDx=0;entryDy=0;" edge="1" parent="1" target="MQydgDbDMx1VdMjxx8H2-234">
          <mxGeometry width="80" relative="1" as="geometry">
            <mxPoint x="1460" y="1030" as="sourcePoint" />
            <mxPoint x="1700" y="1215" as="targetPoint" />
            <Array as="points" />
          </mxGeometry>
        </mxCell>
        <mxCell id="MQydgDbDMx1VdMjxx8H2-240" value="" style="edgeStyle=none;orthogonalLoop=1;jettySize=auto;html=1;rounded=0;entryX=0;entryY=0.5;entryDx=0;entryDy=0;" edge="1" parent="1" target="MQydgDbDMx1VdMjxx8H2-236">
          <mxGeometry width="80" relative="1" as="geometry">
            <mxPoint x="1470" y="1010" as="sourcePoint" />
            <mxPoint x="1706" y="809" as="targetPoint" />
            <Array as="points" />
          </mxGeometry>
        </mxCell>
        <mxCell id="MQydgDbDMx1VdMjxx8H2-241" value="" style="endArrow=open;endSize=12;dashed=1;html=1;rounded=0;exitX=1;exitY=0.5;exitDx=0;exitDy=0;entryX=0.011;entryY=0.321;entryDx=0;entryDy=0;entryPerimeter=0;" edge="1" parent="1" source="MQydgDbDMx1VdMjxx8H2-236" target="MQydgDbDMx1VdMjxx8H2-242">
          <mxGeometry width="160" relative="1" as="geometry">
            <mxPoint x="1853" y="870" as="sourcePoint" />
            <mxPoint x="2131" y="953" as="targetPoint" />
          </mxGeometry>
        </mxCell>
        <mxCell id="MQydgDbDMx1VdMjxx8H2-242" value="S&#39;authentifier" style="ellipse;whiteSpace=wrap;html=1;" vertex="1" parent="1">
          <mxGeometry x="2090" y="985" width="130" height="55" as="geometry" />
        </mxCell>
        <mxCell id="MQydgDbDMx1VdMjxx8H2-243" value="valider la fiche&amp;nbsp;" style="ellipse;whiteSpace=wrap;html=1;" vertex="1" parent="1">
          <mxGeometry x="1800" y="940" width="130" height="40" as="geometry" />
        </mxCell>
        <mxCell id="MQydgDbDMx1VdMjxx8H2-244" value="extend" style="endArrow=open;endSize=12;dashed=1;html=1;rounded=0;" edge="1" parent="1" source="MQydgDbDMx1VdMjxx8H2-237" target="MQydgDbDMx1VdMjxx8H2-236">
          <mxGeometry width="160" relative="1" as="geometry">
            <mxPoint x="1740" y="920" as="sourcePoint" />
            <mxPoint x="1900" y="920" as="targetPoint" />
          </mxGeometry>
        </mxCell>
        <mxCell id="MQydgDbDMx1VdMjxx8H2-245" value="extend" style="endArrow=open;endSize=12;dashed=1;html=1;rounded=0;entryX=0.772;entryY=0.968;entryDx=0;entryDy=0;entryPerimeter=0;" edge="1" parent="1" source="MQydgDbDMx1VdMjxx8H2-243" target="MQydgDbDMx1VdMjxx8H2-236">
          <mxGeometry width="160" relative="1" as="geometry">
            <mxPoint x="1752" y="941" as="sourcePoint" />
            <mxPoint x="1783" y="899" as="targetPoint" />
          </mxGeometry>
        </mxCell>
        <mxCell id="MQydgDbDMx1VdMjxx8H2-246" value="Régler des paramétrages&amp;nbsp;" style="ellipse;whiteSpace=wrap;html=1;" vertex="1" parent="1">
          <mxGeometry x="1750" y="1005" width="130" height="40" as="geometry" />
        </mxCell>
        <mxCell id="MQydgDbDMx1VdMjxx8H2-247" value="include" style="endArrow=open;endSize=12;dashed=1;html=1;rounded=0;" edge="1" parent="1" source="MQydgDbDMx1VdMjxx8H2-246" target="MQydgDbDMx1VdMjxx8H2-243">
          <mxGeometry width="160" relative="1" as="geometry">
            <mxPoint x="1880" y="1055" as="sourcePoint" />
            <mxPoint x="1890" y="1010" as="targetPoint" />
          </mxGeometry>
        </mxCell>
        <mxCell id="MQydgDbDMx1VdMjxx8H2-248" value="Envoyer un message de rejet&amp;nbsp;" style="ellipse;whiteSpace=wrap;html=1;" vertex="1" parent="1">
          <mxGeometry x="1566" y="987.5" width="154" height="50" as="geometry" />
        </mxCell>
        <mxCell id="MQydgDbDMx1VdMjxx8H2-249" value="include" style="endArrow=open;endSize=12;dashed=1;html=1;rounded=0;entryX=0.5;entryY=1;entryDx=0;entryDy=0;exitX=0.586;exitY=-0.062;exitDx=0;exitDy=0;exitPerimeter=0;" edge="1" parent="1" source="MQydgDbDMx1VdMjxx8H2-248" target="MQydgDbDMx1VdMjxx8H2-237">
          <mxGeometry width="160" relative="1" as="geometry">
            <mxPoint x="1907" y="1060" as="sourcePoint" />
            <mxPoint x="1926" y="1030" as="targetPoint" />
            <Array as="points" />
          </mxGeometry>
        </mxCell>
        <mxCell id="MQydgDbDMx1VdMjxx8H2-250" value="" style="edgeStyle=none;orthogonalLoop=1;jettySize=auto;html=1;rounded=0;entryX=0;entryY=0.5;entryDx=0;entryDy=0;" edge="1" parent="1" target="MQydgDbDMx1VdMjxx8H2-232">
          <mxGeometry width="80" relative="1" as="geometry">
            <mxPoint x="1470" y="1010" as="sourcePoint" />
            <mxPoint x="1710" y="1195" as="targetPoint" />
            <Array as="points" />
          </mxGeometry>
        </mxCell>
        <mxCell id="MQydgDbDMx1VdMjxx8H2-252" value="Ajouter de détails dans paramétrage" style="ellipse;whiteSpace=wrap;html=1;" vertex="1" parent="1">
          <mxGeometry x="1940" y="995" width="140" height="50" as="geometry" />
        </mxCell>
        <mxCell id="MQydgDbDMx1VdMjxx8H2-253" value="Supprimer un paramétrage&amp;nbsp;" style="ellipse;whiteSpace=wrap;html=1;" vertex="1" parent="1">
          <mxGeometry x="1830" y="1070" width="130" height="40" as="geometry" />
        </mxCell>
        <mxCell id="MQydgDbDMx1VdMjxx8H2-254" value="Modifier un paramétrage&amp;nbsp;" style="ellipse;whiteSpace=wrap;html=1;" vertex="1" parent="1">
          <mxGeometry x="1670" y="1080" width="130" height="40" as="geometry" />
        </mxCell>
        <mxCell id="MQydgDbDMx1VdMjxx8H2-255" value="extend" style="endArrow=open;endSize=12;dashed=1;html=1;rounded=0;" edge="1" parent="1" source="MQydgDbDMx1VdMjxx8H2-252" target="MQydgDbDMx1VdMjxx8H2-246">
          <mxGeometry width="160" relative="1" as="geometry">
            <mxPoint x="1924" y="1070" as="sourcePoint" />
            <mxPoint x="1890" y="1009" as="targetPoint" />
          </mxGeometry>
        </mxCell>
        <mxCell id="MQydgDbDMx1VdMjxx8H2-256" value="extend" style="endArrow=open;endSize=12;dashed=1;html=1;rounded=0;entryX=0.746;entryY=0.99;entryDx=0;entryDy=0;entryPerimeter=0;exitX=0.5;exitY=0;exitDx=0;exitDy=0;" edge="1" parent="1" source="MQydgDbDMx1VdMjxx8H2-253" target="MQydgDbDMx1VdMjxx8H2-246">
          <mxGeometry x="-0.2693" y="2" width="160" relative="1" as="geometry">
            <mxPoint x="1850" y="1075.5" as="sourcePoint" />
            <mxPoint x="1816" y="1014.5" as="targetPoint" />
            <mxPoint y="-1" as="offset" />
          </mxGeometry>
        </mxCell>
        <mxCell id="MQydgDbDMx1VdMjxx8H2-257" value="extend" style="endArrow=open;endSize=12;dashed=1;html=1;rounded=0;" edge="1" parent="1" target="MQydgDbDMx1VdMjxx8H2-246">
          <mxGeometry width="160" relative="1" as="geometry">
            <mxPoint x="1755" y="1081" as="sourcePoint" />
            <mxPoint x="1716" y="1025" as="targetPoint" />
          </mxGeometry>
        </mxCell>
        <mxCell id="MQydgDbDMx1VdMjxx8H2-258" value="Consulter les droits d&#39;Accès des utilisateurs&amp;nbsp;" style="ellipse;whiteSpace=wrap;html=1;" vertex="1" parent="1">
          <mxGeometry x="1750" y="1290" width="160" height="50" as="geometry" />
        </mxCell>
        <mxCell id="MQydgDbDMx1VdMjxx8H2-259" value="" style="edgeStyle=none;orthogonalLoop=1;jettySize=auto;html=1;rounded=0;entryX=0;entryY=0.5;entryDx=0;entryDy=0;" edge="1" parent="1" target="MQydgDbDMx1VdMjxx8H2-258">
          <mxGeometry width="80" relative="1" as="geometry">
            <mxPoint x="1449.5" y="1060" as="sourcePoint" />
            <mxPoint x="1707.5" y="1285" as="targetPoint" />
            <Array as="points" />
          </mxGeometry>
        </mxCell>
        <mxCell id="MQydgDbDMx1VdMjxx8H2-260" value="include" style="endArrow=open;endSize=12;dashed=1;html=1;rounded=0;entryX=0;entryY=1;entryDx=0;entryDy=0;exitX=0.731;exitY=0.08;exitDx=0;exitDy=0;exitPerimeter=0;" edge="1" parent="1" source="MQydgDbDMx1VdMjxx8H2-258">
          <mxGeometry width="160" relative="1" as="geometry">
            <mxPoint x="1882" y="1257" as="sourcePoint" />
            <mxPoint x="2118.771399112176" y="1050.001960371272" as="targetPoint" />
          </mxGeometry>
        </mxCell>
        <mxCell id="MQydgDbDMx1VdMjxx8H2-261" value="Modifier droits d&#39;Accès" style="ellipse;whiteSpace=wrap;html=1;" vertex="1" parent="1">
          <mxGeometry x="2000" y="1230" width="150" height="50" as="geometry" />
        </mxCell>
        <mxCell id="MQydgDbDMx1VdMjxx8H2-265" value="extend" style="endArrow=open;endSize=12;dashed=1;html=1;rounded=0;entryX=0.944;entryY=0.268;entryDx=0;entryDy=0;entryPerimeter=0;" edge="1" parent="1" source="MQydgDbDMx1VdMjxx8H2-261" target="MQydgDbDMx1VdMjxx8H2-258">
          <mxGeometry width="160" relative="1" as="geometry">
            <mxPoint x="1980" y="1266.51" as="sourcePoint" />
            <mxPoint x="2015.3841320645756" y="1219.9978239138993" as="targetPoint" />
          </mxGeometry>
        </mxCell>
      </root>
    </mxGraphModel>
  </diagram>
</mxfile>
